<?xml version="1.0" encoding="utf-8"?>
<!-- Svg Vector Icons : http://www.onlinewebfonts.com/icon -->
<!DOCTYPE svg PUBLIC "-//W3C//DTD SVG 1.1//EN" "http://www.w3.org/Graphics/SVG/1.1/DTD/svg11.dtd">
<svg version="1.1" xmlns="http://www.w3.org/2000/svg" xmlns:xlink="http://www.w3.org/1999/xlink" x="0px" y="0px" viewBox="0 0 1000 1000" enable-background="new 0 0 1000 1000" xml:space="preserve" fill="#fff">
<metadata> Svg Vector Icons : http://www.onlinewebfonts.com/icon </metadata>
<g><path d="M669.4,569.7c-38.2,0-69.2,43-69.2,95.8c0,52.9,31,95.9,69.2,95.9c38.2,0,69.2-43,69.2-95.9C738.6,612.7,707.6,569.7,669.4,569.7z M910.4,320.3c7.9-19.4,8.3-129.9-33.8-235.7c0,0-96.5,10.6-242.4,110.8c-30.6-8.5-82.4-12.7-134.2-12.7c-51.8,0-103.6,4.2-134.2,12.7C219.8,95.2,123.4,84.6,123.4,84.6c-42,105.8-41.6,216.3-33.8,235.7C40.2,374,10,438.5,10,526.5c0,382.7,317.6,388.9,397.7,388.9c18.2,0,54.2,0.1,92.4,0.1c38.1,0,74.1-0.1,92.2-0.1c80.2,0,397.7-6.1,397.7-388.9C990,438.5,959.9,374,910.4,320.3z M501.5,868.3h-3c-200.8,0-357.3-23.9-357.3-219.2c0-46.8,16.5-90.2,55.8-126.2c65.4-60,176-28.3,301.6-28.3c0.5,0,1.1,0,1.5,0c0.5,0,1,0,1.4,0c125.5,0,236.3-31.7,301.7,28.3c39.1,36,55.7,79.4,55.7,126.2C858.8,844.4,702.4,868.3,501.5,868.3z M330.7,569.7c-38.2,0-69.2,43-69.2,95.8c0,52.9,31,95.9,69.2,95.9c38.3,0,69.3-43,69.3-95.9C400,612.7,369,569.7,330.7,569.7z"/></g>
</svg>